name Walk8.mot
datacolumns 19
datarows 20
range 1.96500000 2.06000000
endheader

                time	   L_ground_force_vx	   L_ground_force_vy	   L_ground_force_vz	   L_ground_force_px	   L_ground_force_py	   L_ground_force_pz	   R_ground_force_vx	   R_ground_force_vy	   R_ground_force_vz	   R_ground_force_px	   R_ground_force_py	   R_ground_force_pz	   L_ground_torque_x	   L_ground_torque_y	   L_ground_torque_z	   R_ground_torque_x	   R_ground_torque_y	   R_ground_torque_z	
          1.96500000	          0.16378935	          0.38254775	         -0.01288230	          0.00017222	          0.00000000	          0.00009132	        -18.61864542	        642.79984073	        -47.85883443	          0.10808398	          0.00000000	          0.06728885	          0.00000000	          0.00018783	          0.00000000	          0.00000000	          2.81882103	          0.00000000	
          1.97000000	          0.13192088	          0.34962489	         -0.01183303	         -0.00008807	          0.00000000	          0.00001281	        -15.94418152	        633.04703299	        -47.38252193	          0.11043380	          0.00000000	          0.06748748	          0.00000000	          0.00016238	          0.00000000	          0.00000000	          2.87887177	          0.00000000	
          1.97500000	          0.10105091	          0.30086100	         -0.01022430	         -0.00024802	          0.00000000	         -0.00003855	        -13.50226641	        624.43210150	        -46.92456886	          0.11282192	          0.00000000	          0.06767917	          0.00000000	          0.00013322	          0.00000000	          0.00000000	          2.93863478	          0.00000000	
          1.98000000	          0.07326268	          0.24579519	         -0.00838404	         -0.00033098	          0.00000000	         -0.00006844	        -11.26618830	        617.00384968	        -46.49186072	          0.11524132	          0.00000000	          0.06786490	          0.00000000	          0.00010398	          0.00000000	          0.00000000	          2.99591529	          0.00000000	
          1.98500000	          0.04964844	          0.19104312	         -0.00654083	         -0.00035801	          0.00000000	         -0.00008220	         -9.20936658	        610.79509538	        -46.08667737	          0.11768472	          0.00000000	          0.06804541	          0.00000000	          0.00007701	          0.00000000	          0.00000000	          3.04905873	          0.00000000	
          1.99000000	          0.03057849	          0.14082249	         -0.00484152	         -0.00034702	          0.00000000	         -0.00008451	         -7.30613436	        605.82530113	        -45.70741950	          0.12014276	          0.00000000	          0.06822023	          0.00000000	          0.00005362	          0.00000000	          0.00000000	          3.09684066	          0.00000000	
          1.99500000	          0.01593092	          0.09747961	         -0.00336888	         -0.00031253	          0.00000000	         -0.00007932	         -5.53204820	        602.10723326	        -45.34895596	          0.12260547	          0.00000000	          0.06838899	          0.00000000	          0.00003438	          0.00000000	          0.00000000	          3.13797818	          0.00000000	
          2.00000000	          0.00527777	          0.06197520	         -0.00215807	         -0.00026570	          0.00000000	         -0.00006971	         -3.86409500	        599.65242159	        -45.00279254	          0.12506343	          0.00000000	          0.06855221	          0.00000000	          0.00001933	          0.00000000	          0.00000000	          3.17079739	          0.00000000	
          2.00500000	         -0.00197130	          0.03430542	         -0.00121092	         -0.00021465	          0.00000000	         -0.00005804	         -2.28162794	        598.46721893	        -44.65925255	          0.12750692	          0.00000000	          0.06870989	          0.00000000	          0.00000814	          0.00000000	          0.00000000	          3.19377238	          0.00000000	
          2.01000000	         -0.00646408	          0.01384819	         -0.00050776	         -0.00016494	          0.00000000	         -0.00004596	         -0.76562715	        598.54975698	        -44.30920290	          0.12992772	          0.00000000	          0.06886047	          0.00000000	          0.00000033	          0.00000000	          0.00000000	          3.20595550	          0.00000000	
          2.01500000	         -0.00883398	         -0.00036587	         -0.00001668	         -0.00012001	          0.00000000	         -0.00003458	          0.70207760	        599.88888853	        -43.94411704	          0.13231746	          0.00000000	          0.06900189	          0.00000000	         -0.00000471	          0.00000000	          0.00000000	          3.20682436	          0.00000000	
          2.02000000	         -0.00965509	         -0.00945213	          0.00029956	         -0.00008171	          0.00000000	         -0.00002455	          2.13933127	        602.45940756	        -43.55690662	          0.13466522	          0.00000000	          0.06913156	          0.00000000	         -0.00000757	          0.00000000	          0.00000000	          3.19584164	          0.00000000	
          2.02500000	         -0.00941805	         -0.01453142	          0.00047866	         -0.00005069	          0.00000000	         -0.00001618	          3.56468161	        606.22003421	        -43.14408253	          0.13696022	          0.00000000	          0.06924605	          0.00000000	         -0.00000880	          0.00000000	          0.00000000	          3.17240551	          0.00000000	
          2.03000000	         -0.00852119	         -0.01663942	          0.00055566	         -0.00002679	          0.00000000	         -0.00000953	          4.99815388	        611.11706062	        -42.70670062	          0.13919258	          0.00000000	          0.06934131	          0.00000000	         -0.00000890	          0.00000000	          0.00000000	          3.13576262	          0.00000000	
          2.03500000	         -0.00727213	         -0.01667525	          0.00056110	         -0.00000934	          0.00000000	         -0.00000451	          6.46126019	        617.08973716	        -42.24922029	          0.14135180	          0.00000000	          0.06941491	          0.00000000	         -0.00000826	          0.00000000	          0.00000000	          3.08441675	          0.00000000	
          2.04000000	         -0.00589599	         -0.01537943	          0.00052020	          0.00000259	          0.00000000	         -0.00000093	          7.97671763	        624.07219246	        -41.77808586	          0.14342668	          0.00000000	          0.06946616	          0.00000000	         -0.00000719	          0.00000000	          0.00000000	          3.01574886	          0.00000000	
          2.04500000	         -0.00454720	         -0.01333211	          0.00045284	          0.00001003	          0.00000000	          0.00000143	          9.56894441	        631.99489814	        -41.30103478	          0.14540476	          0.00000000	          0.06949393	          0.00000000	         -0.00000594	          0.00000000	          0.00000000	          2.92617191	          0.00000000	
          2.05000000	         -0.00332262	         -0.01096480	          0.00037383	          0.00001401	          0.00000000	          0.00000284	         11.26435617	        640.78894529	        -40.82654286	          0.14727396	          0.00000000	          0.06949735	          0.00000000	         -0.00000467	          0.00000000	          0.00000000	          2.81134279	          0.00000000	
          2.05500000	         -0.00227454	         -0.00857950	          0.00029359	          0.00001546	          0.00000000	          0.00000351	         13.09017707	        650.38729097	        -40.36245403	          0.14902540	          0.00000000	          0.06947544	          0.00000000	         -0.00000348	          0.00000000	          0.00000000	          2.66617674	          0.00000000	
          2.06000000	         -0.00142253	         -0.00637132	          0.00021892	          0.00001516	          0.00000000	          0.00000367	         15.07257304	        660.72125215	        -39.91466054	          0.15065214	          0.00000000	          0.06942741	          0.00000000	         -0.00000245	          0.00000000	          0.00000000	          2.48483039	          0.00000000	
